<svg xmlns="http://www.w3.org/2000/svg" width="21.978" height="24" viewBox="0 0 21.978 24"><defs><style>.a{fill:#fcd0a3;}.b{fill:#ffb983;}.c{fill:#168ccd;}.d{fill:#0970a8;}.e{fill:#fc8086;}.f{fill:#fb636f;}.g{fill:#5a5a5a;}</style></defs><g transform="translate(-52.134 -40.144)"><circle class="a" cx="1.967" cy="1.967" r="1.967" transform="translate(68.963 41.499)"/><path class="b" d="M380.328,64.52a1.968,1.968,0,0,0-.584.088,1.967,1.967,0,0,1,.242,3.816,1.967,1.967,0,1,0,.342-3.9Z" transform="translate(-309.398 -23.021)"/><circle class="a" cx="1.967" cy="1.967" r="1.967" transform="translate(54.037 41.499)"/><path class="b" d="M111.84,64.52a1.968,1.968,0,0,0-.584.088,1.967,1.967,0,0,1,.242,3.816,1.967,1.967,0,1,0,.342-3.9Z" transform="translate(-55.836 -23.021)"/><path class="c" d="M338.26,172.522h-4.14a1.112,1.112,0,0,1-1.112-1.112v-5.876a1.112,1.112,0,0,1,1.112-1.112h4.14a1.112,1.112,0,0,1,1.112,1.112v5.876a1.112,1.112,0,0,1-1.112,1.112Z" transform="translate(-265.26 -117.37)"/><path class="d" d="M407.011,164.423h-1.157a1.157,1.157,0,0,1,1.157,1.157v5.785a1.157,1.157,0,0,1-1.157,1.157h1.157a1.157,1.157,0,0,0,1.157-1.157V165.58A1.157,1.157,0,0,0,407.011,164.423Z" transform="translate(-334.056 -117.37)"/><path class="c" d="M356.759,317.751h-1.826a1.112,1.112,0,0,1-1.112-1.112v-6.525h4.05v6.525A1.112,1.112,0,0,1,356.759,317.751Z" transform="translate(-284.916 -254.962)"/><path class="e" d="M88.271,317.751H86.445a1.112,1.112,0,0,1-1.112-1.112v-6.525h4.05v6.525A1.112,1.112,0,0,1,88.271,317.751Z" transform="translate(-31.354 -254.962)"/><path class="f" d="M85.333,310.114h4.05v1.273h-4.05Z" transform="translate(-31.354 -254.962)"/><path class="d" d="M353.821,310.114h4.05v1.273h-4.05Z" transform="translate(-284.916 -254.962)"/><path class="e" d="M58.718,172.522H53.291a1.157,1.157,0,0,1-1.151-1.272l.579-5.785a1.157,1.157,0,0,1,1.151-1.042h4.27a1.157,1.157,0,0,1,1.151,1.042l.579,5.785A1.157,1.157,0,0,1,58.718,172.522Z" transform="translate(0 -117.37)"/><path class="f" d="M140.168,171.25l-.579-5.785a1.157,1.157,0,0,0-1.151-1.042H137.16a1.157,1.157,0,0,1,1.151,1.042l.579,5.785a1.157,1.157,0,0,1-1.151,1.272h1.278A1.157,1.157,0,0,0,140.168,171.25Z" transform="translate(-80.299 -117.37)"/><path class="g" d="M248.7,64.144a.429.429,0,0,1-.43-.43V40.574a.43.43,0,1,1,.859,0V63.714A.43.43,0,0,1,248.7,64.144Z" transform="translate(-185.236)"/></g></svg>