<svg xmlns="http://www.w3.org/2000/svg" width="16.483" height="18" viewBox="0 0 16.483 18"><defs><style>.a{fill:#dbdbdb;}.b{fill:#9a9a9a;}.c{fill:#818181;}.d{fill:#4e4e4e;}.e{fill:#a2a2a2;}.f{fill:#7c7c7c;}.g{fill:#5a5a5a;}</style></defs><g transform="translate(-52.134 -40.144)"><circle class="a" cx="1.475" cy="1.475" r="1.475" transform="translate(64.756 41.16)"/><path class="b" d="M380.182,64.52a1.476,1.476,0,0,0-.438.066,1.475,1.475,0,0,1,.181,2.862,1.475,1.475,0,1,0,.256-2.928Z" transform="translate(-313.951 -23.36)"/><circle class="a" cx="1.475" cy="1.475" r="1.475" transform="translate(53.561 41.16)"/><path class="b" d="M111.694,64.52a1.476,1.476,0,0,0-.438.066,1.475,1.475,0,0,1,.181,2.862,1.475,1.475,0,1,0,.256-2.928Z" transform="translate(-56.657 -23.36)"/><path class="c" d="M336.947,170.5h-3.105a.834.834,0,0,1-.834-.834v-4.407a.834.834,0,0,1,.834-.834h3.105a.834.834,0,0,1,.834.834v4.407a.834.834,0,0,1-.834.834Z" transform="translate(-269.163 -119.097)"/><path class="d" d="M406.722,164.423h-.868a.868.868,0,0,1,.868.868v4.339a.868.868,0,0,1-.868.868h.868a.868.868,0,0,0,.868-.868v-4.339A.868.868,0,0,0,406.722,164.423Z" transform="translate(-338.972 -119.097)"/><path class="c" d="M356.024,315.841h-1.369a.834.834,0,0,1-.834-.834v-4.893h3.037v4.893A.834.834,0,0,1,356.024,315.841Z" transform="translate(-289.109 -258.714)"/><path class="e" d="M87.536,315.841H86.167a.834.834,0,0,1-.834-.834v-4.893H88.37v4.893A.834.834,0,0,1,87.536,315.841Z" transform="translate(-31.815 -258.714)"/><path class="f" d="M85.333,310.114H88.37v.955H85.333Z" transform="translate(-31.815 -258.714)"/><path class="d" d="M353.821,310.114h3.037v.955h-3.037Z" transform="translate(-289.109 -258.714)"/><path class="e" d="M57.072,170.5H53a.868.868,0,0,1-.863-.954l.434-4.339a.868.868,0,0,1,.863-.781h3.2a.868.868,0,0,1,.863.781l.434,4.339A.868.868,0,0,1,57.072,170.5Z" transform="translate(0 -119.097)"/><path class="f" d="M139.416,169.543l-.434-4.339a.868.868,0,0,0-.863-.781h-.959a.868.868,0,0,1,.863.781l.434,4.339a.868.868,0,0,1-.863.954h.959A.868.868,0,0,0,139.416,169.543Z" transform="translate(-81.481 -119.097)"/><path class="g" d="M248.6,58.144a.322.322,0,0,1-.322-.322V40.466a.322.322,0,1,1,.644,0V57.822A.322.322,0,0,1,248.6,58.144Z" transform="translate(-187.962)"/></g></svg>