<svg xmlns="http://www.w3.org/2000/svg" width="29.305" height="32" viewBox="0 0 29.305 32"><defs><style>.a{fill:#fcd0a3;}.b{fill:#ffb983;}.c{fill:#168ccd;}.d{fill:#0970a8;}.e{fill:#fc8086;}.f{fill:#fb636f;}.g{fill:#5a5a5a;}</style></defs><g transform="translate(-52.134 -40.144)"><circle class="a" cx="2.623" cy="2.623" r="2.623" transform="translate(74.573 41.951)"/><path class="b" d="M380.522,64.52a2.623,2.623,0,0,0-.778.117,2.623,2.623,0,0,1,.322,5.088,2.622,2.622,0,1,0,.456-5.2Z" transform="translate(-303.327 -22.569)"/><circle class="a" cx="2.623" cy="2.623" r="2.623" transform="translate(54.672 41.951)"/><path class="b" d="M112.034,64.52a2.623,2.623,0,0,0-.778.117,2.623,2.623,0,0,1,.322,5.088,2.622,2.622,0,1,0,.456-5.2Z" transform="translate(-54.74 -22.569)"/><path class="c" d="M340.011,175.222h-5.52a1.482,1.482,0,0,1-1.482-1.482v-7.834a1.482,1.482,0,0,1,1.482-1.482h5.52a1.482,1.482,0,0,1,1.482,1.482v7.834a1.482,1.482,0,0,1-1.482,1.482Z" transform="translate(-260.055 -115.067)"/><path class="d" d="M407.4,164.423h-1.543a1.543,1.543,0,0,1,1.543,1.543v7.714a1.543,1.543,0,0,1-1.543,1.543H407.4a1.543,1.543,0,0,0,1.543-1.543v-7.714A1.543,1.543,0,0,0,407.4,164.423Z" transform="translate(-327.501 -115.067)"/><path class="c" d="M357.738,320.3H355.3a1.482,1.482,0,0,1-1.482-1.482v-8.7h5.4v8.7A1.483,1.483,0,0,1,357.738,320.3Z" transform="translate(-279.325 -249.959)"/><path class="e" d="M89.25,320.3H86.815a1.482,1.482,0,0,1-1.482-1.482v-8.7h5.4v8.7A1.482,1.482,0,0,1,89.25,320.3Z" transform="translate(-30.738 -249.959)"/><path class="f" d="M85.333,310.114h5.4v1.7h-5.4Z" transform="translate(-30.738 -249.959)"/><path class="d" d="M353.821,310.114h5.4v1.7h-5.4Z" transform="translate(-279.325 -249.959)"/><path class="e" d="M60.912,175.222H53.677a1.543,1.543,0,0,1-1.535-1.7l.771-7.714a1.543,1.543,0,0,1,1.535-1.389h5.693a1.543,1.543,0,0,1,1.535,1.389l.771,7.714A1.543,1.543,0,0,1,60.912,175.222Z" transform="translate(0 -115.067)"/><path class="f" d="M141.171,173.526l-.771-7.714a1.543,1.543,0,0,0-1.535-1.389h-1.7a1.543,1.543,0,0,1,1.535,1.389l.771,7.714a1.543,1.543,0,0,1-1.535,1.7h1.7A1.543,1.543,0,0,0,141.171,173.526Z" transform="translate(-78.724 -115.067)"/><path class="g" d="M248.847,72.144a.573.573,0,0,1-.573-.573V40.717a.573.573,0,0,1,1.145,0V71.571A.573.573,0,0,1,248.847,72.144Z" transform="translate(-181.602)"/></g></svg>