<svg xmlns="http://www.w3.org/2000/svg" width="29.258" height="30.984" viewBox="0 0 29.258 30.984"><defs><style>.a{fill:#168ccd;}.b{fill:#67bceb;}.c{fill:#ffe2e2;}.d{fill:#ffefee;}.e{fill:#333;}.f{fill:#f9d335;}.g{fill:#f9e27d;}.h{fill:#7c7a7a;}.i{fill:#8b8b8b;}.j{fill:#484848;}.k{fill:#a5a5a5;}.l{fill:#5a5a5a;}</style></defs><g transform="translate(-7.987 -2.508)"><path class="a" d="M205.424,38.405l2.028-2.028a.635.635,0,0,0,0-.9L206.3,34.33a.635.635,0,0,0-.9,0l-2.028,2.028Z" transform="translate(-171.414 -28.062)"/><path class="b" d="M207.322,35.349a.635.635,0,0,0-.9,0L204.4,37.377l-1.016-1.016,2.028-2.028a.635.635,0,0,1,.9,0Z" transform="translate(-171.417 -28.065)"/><path class="c" d="M28.528,90.54v11.7a1.624,1.624,0,0,1-3.248,0V90.54Z" transform="translate(-15.933 -77.297)"/><path class="d" d="M27.857,103.556a1.624,1.624,0,0,1-2.577-1.316V90.54h1.9v11.7A1.621,1.621,0,0,0,27.857,103.556Z" transform="translate(-15.933 -77.297)"/><path class="e" d="M151.025,84.406l-2.508,2.508s14.108,3.822-3.151,12.165h5.659c13.9-8.6,0-14.673,0-14.673Z" transform="translate(-120.77 -71.942)"/><path class="a" d="M131.079,118.019,132.1,117l-2.047-2.047-1.023,1.023a1.448,1.448,0,0,0,2.047,2.047Z" transform="translate(-106.14 -98.605)"/><path class="c" d="M24.611,88.369h-3.1a.635.635,0,0,1-.635-.635V86.51a.635.635,0,0,1,.635-.635h3.1a.635.635,0,0,1,.635.635v1.225A.635.635,0,0,1,24.611,88.369Z" transform="translate(-12.09 -73.224)"/><path class="f" d="M28.528,148.5v4.34a1.624,1.624,0,1,1-3.248,0V148.5Z" transform="translate(-15.933 -127.897)"/><circle class="f" cx="1.717" cy="1.717" r="1.717" transform="translate(12.298 4.647)"/><circle class="f" cx="1.214" cy="1.214" r="1.214" transform="translate(8.134 2.508)"/><circle class="f" cx="1.214" cy="1.214" r="1.214" transform="translate(8.49 8.133)"/><path class="g" d="M51.189,25.987a1.7,1.7,0,0,1-.952.288,1.717,1.717,0,1,1,.952-3.147,1.718,1.718,0,0,0,0,2.858Z" transform="translate(-36.221 -18.194)"/><path class="d" d="M23.42,88.365h-1.9a.635.635,0,0,1-.635-.635V86.5a.635.635,0,0,1,.635-.635h1.9a.635.635,0,0,0-.635.635V87.73A.635.635,0,0,0,23.42,88.365Z" transform="translate(-12.091 -73.22)"/><path class="g" d="M27.857,154.156a1.624,1.624,0,0,1-2.577-1.316V148.5h1.9v4.34A1.621,1.621,0,0,0,27.857,154.156Z" transform="translate(-15.933 -127.897)"/><path class="h" d="M147.275,110.214h-1.9c17.258-8.344,3.15-12.165,3.15-12.165l.889-.889C152.147,98.049,162.425,102.178,147.275,110.214Z" transform="translate(-120.773 -83.076)"/><path class="i" d="M140.49,52.706l-2.057-2.057a.635.635,0,0,1,0-.9l8.3-8.3a.635.635,0,0,1,.9,0l2.057,2.057a.635.635,0,0,1,0,.9l-8.3,8.3A.635.635,0,0,1,140.49,52.706Z" transform="translate(-114.554 -34.278)"/><path class="j" d="M160.133,44.55l-8.3,8.3a.635.635,0,0,1-.9,0l-.724-.724a.631.631,0,0,0,.606-.165l8.3-8.3a.635.635,0,0,0,0-.9l-1.333-1.333a.638.638,0,0,1,.292.165l2.057,2.057A.635.635,0,0,1,160.133,44.55Z" transform="translate(-124.998 -34.423)"/><path class="i" d="M126.379,195.141H111.8v-2.73a.635.635,0,0,1,.635-.635h13.313a.635.635,0,0,1,.635.635Z" transform="translate(-91.462 -165.677)"/><path class="j" d="M209.18,192.415v2.729h-1.9v-2.729a.634.634,0,0,0-.635-.635h1.9A.634.634,0,0,1,209.18,192.415Z" transform="translate(-174.263 -165.681)"/><path class="k" d="M111.431,219.481h-16.7a1.27,1.27,0,0,1-1.27-1.27v-1.9a1.27,1.27,0,0,1,1.27-1.27h16.7a1.27,1.27,0,0,1,1.27,1.27v1.9A1.27,1.27,0,0,1,111.431,219.481Z" transform="translate(-75.456 -185.989)"/><path class="l" d="M223.145,216.31v1.9a1.27,1.27,0,0,1-1.27,1.27h-1.9a1.27,1.27,0,0,0,1.27-1.27v-1.9a1.27,1.27,0,0,0-1.27-1.27h1.9A1.27,1.27,0,0,1,223.145,216.31Z" transform="translate(-185.9 -185.987)"/><path class="b" d="M130.052,116.989a1.45,1.45,0,0,0-.373,1.4,1.448,1.448,0,0,1-.643-2.42l1.023-1.023,1.016,1.016Z" transform="translate(-106.143 -98.607)"/><g transform="translate(7.03 2)"><path class="l" d="M109.509,228.52h-3.3a.508.508,0,0,0,0,1.016h3.3A.508.508,0,0,0,109.509,228.52Z" transform="translate(-93.173 -199.756)"/><path class="l" d="M147.439,228.52h-.232a.508.508,0,0,0,0,1.016h.232A.508.508,0,0,0,147.439,228.52Z" transform="translate(-128.967 -199.756)"/></g><path class="i" d="M19.959,238.536H15.2a.635.635,0,0,1-.635-.635v-.4a.635.635,0,0,1,.635-.635h4.758a.635.635,0,0,1,.635.635v.4A.635.635,0,0,1,19.959,238.536Z" transform="translate(248.704 12.078) rotate(90)"/><path class="k" d="M19.959,238.536H15.2a.635.635,0,0,1-.635-.635v-.4a.635.635,0,0,1,.635-.635h4.758a.635.635,0,0,1,.635.635v.4A.635.635,0,0,1,19.959,238.536Z" transform="translate(-6.579 -205.044)"/><path class="l" d="M44.58,237.5v.4a.635.635,0,0,1-.635.635h-1.9a.635.635,0,0,0,.635-.635v-.4a.635.635,0,0,0-.635-.635h1.9A.635.635,0,0,1,44.58,237.5Z" transform="translate(-30.564 -205.045)"/></g></svg>