<svg xmlns="http://www.w3.org/2000/svg" xmlns:xlink="http://www.w3.org/1999/xlink" width="40" height="40" viewBox="0 0 40 40"><defs><style>.a,.c{fill:none;}.b{clip-path:url(#a);}.c{stroke:#168ccd;stroke-width:0.5px;stroke-dasharray:4;}.d{fill:#424a60;}.e{fill:#303644;}.f{fill:#edeada;}.g{fill:#168ccd;}.h{fill:#cec9ae;}.i{stroke:none;}</style><clipPath id="a"><rect class="a" width="40" height="40"/></clipPath></defs><g class="b"><g class="c"><circle class="i" cx="20" cy="20" r="20"/><circle class="a" cx="20" cy="20" r="19.75"/></g><g transform="translate(7.069 11)"><path class="d" d="M15.431,2H14.19v.931H11.4V2H5.5V19.379H20.086V2Z" transform="translate(0 -1.379)"/><rect class="e" width="2.793" height="1.552" transform="translate(11.397)"/><path class="f" d="M18.431,5v.931H11.293V5H8.5V20.517H21.224V5Z" transform="translate(-2.069 -3.448)"/><path class="g" d="M22.466,2v.931H19.672V2H17.5V3.862h7.138V2Z" transform="translate(-8.276 -1.379)"/><path class="h" d="M17.845,14.621H13.81a.31.31,0,0,1,0-.621h4.034a.31.31,0,0,1,0,.621Z" transform="translate(-5.517 -9.655)"/><path class="h" d="M17.845,45.621H13.81a.31.31,0,0,1,0-.621h4.034a.31.31,0,1,1,0,.621Z" transform="translate(-5.517 -31.034)"/><path class="h" d="M22.81,20.621h-9a.31.31,0,0,1,0-.621h9a.31.31,0,0,1,0,.621Z" transform="translate(-5.517 -13.793)"/><path class="h" d="M22.81,32.621h-9a.31.31,0,0,1,0-.621h9a.31.31,0,1,1,0,.621Z" transform="translate(-5.517 -22.069)"/><path class="h" d="M22.81,39.621h-9a.31.31,0,1,1,0-.621h9a.31.31,0,1,1,0,.621Z" transform="translate(-5.517 -26.897)"/><path class="h" d="M18.155,26.621H13.81a.31.31,0,0,1,0-.621h4.345a.31.31,0,0,1,0,.621Z" transform="translate(-5.517 -17.931)"/><path class="h" d="M37.983,26.621H35.81a.31.31,0,1,1,0-.621h2.172a.31.31,0,0,1,0,.621Z" transform="translate(-20.69 -17.931)"/><path class="h" d="M31.81,26.627a.307.307,0,0,1-.22-.09.325.325,0,0,1-.09-.22.306.306,0,0,1,.09-.22.322.322,0,0,1,.441,0,.307.307,0,0,1,.09.22.307.307,0,0,1-.31.31Z" transform="translate(-17.931 -17.937)"/></g></g></svg>