<svg xmlns="http://www.w3.org/2000/svg" width="19.448" height="24" viewBox="0 0 19.448 24"><defs><style>.a{fill:#424a60;}.b{fill:#303644;}.c{fill:#edeada;}.d{fill:#168ccd;}.e{fill:#cec9ae;}</style></defs><g transform="translate(-5.5)"><path class="a" d="M18.741,2H17.086V3.241H13.362V2H5.5V25.172H24.948V2Z" transform="translate(0 -1.172)"/><rect class="b" width="3.724" height="2.069" transform="translate(13.362)"/><path class="c" d="M21.741,5V6.241H12.224V5H8.5V25.69H25.466V5Z" transform="translate(-1.759 -2.931)"/><path class="d" d="M24.121,2V3.241H20.4V2H17.5V4.483h9.517V2Z" transform="translate(-7.034 -1.172)"/><path class="e" d="M19.293,14.828H13.914a.414.414,0,1,1,0-.828h5.379a.414.414,0,1,1,0,.828Z" transform="translate(-4.69 -8.207)"/><path class="e" d="M19.293,45.828H13.914a.414.414,0,1,1,0-.828h5.379a.414.414,0,1,1,0,.828Z" transform="translate(-4.69 -26.379)"/><path class="e" d="M25.914,20.828h-12a.414.414,0,1,1,0-.828h12a.414.414,0,1,1,0,.828Z" transform="translate(-4.69 -11.724)"/><path class="e" d="M25.914,32.828h-12a.414.414,0,1,1,0-.828h12a.414.414,0,1,1,0,.828Z" transform="translate(-4.69 -18.759)"/><path class="e" d="M25.914,39.828h-12a.414.414,0,1,1,0-.828h12a.414.414,0,1,1,0,.828Z" transform="translate(-4.69 -22.862)"/><path class="e" d="M19.707,26.828H13.914a.414.414,0,1,1,0-.828h5.793a.414.414,0,0,1,0,.828Z" transform="translate(-4.69 -15.241)"/><path class="e" d="M38.81,26.828h-2.9a.414.414,0,1,1,0-.828h2.9a.414.414,0,0,1,0,.828Z" transform="translate(-17.586 -15.241)"/><path class="e" d="M31.914,26.833a.41.41,0,0,1-.294-.12.433.433,0,0,1-.12-.294.408.408,0,0,1,.12-.294.429.429,0,0,1,.588,0,.41.41,0,0,1,.12.294.41.41,0,0,1-.414.414Z" transform="translate(-15.241 -15.247)"/></g></svg>