<svg xmlns="http://www.w3.org/2000/svg" width="11.279" height="18" viewBox="0 0 11.279 18"><defs><style>.a{fill:#a5a5a5;}.b{fill:#a4a49e;}.c{fill:#4e4e4e;}.d{fill:#818181;}.e{fill:#5a5a5a;}.f{fill:#6f6f6f;}</style></defs><g transform="translate(-95.592 0)"><path class="a" d="M115.1,358.643a2.3,2.3,0,0,0,3.255-3.255l-2.56.718Z" transform="translate(-18.822 -342.894)"/><path class="a" d="M116.4,335.879a2.3,2.3,0,0,0-1.628.674l1.639,1.639,1.627-1.627A2.294,2.294,0,0,0,116.4,335.879Z" transform="translate(-18.503 -324.071)"/><g transform="translate(95.592 1.312)"><path class="b" d="M95.592,356.684a2.294,2.294,0,0,0,.686,1.639l1.627-1.627-1.639-1.639A2.294,2.294,0,0,0,95.592,356.684Z" transform="translate(-95.592 -343.886)"/><path class="a" d="M130,46.325a4.188,4.188,0,0,1-3.745-2.286,11.005,11.005,0,0,1-1.2-4.993,2.055,2.055,0,0,1,1.075-1.669.345.345,0,0,1,.383.575,1.465,1.465,0,0,0-.767,1.094,10.312,10.312,0,0,0,1.128,4.679,3.52,3.52,0,0,0,6.261,0,10.312,10.312,0,0,0,1.128-4.679,1.465,1.465,0,0,0-.767-1.094.345.345,0,1,1,.383-.575,2.055,2.055,0,0,1,1.075,1.669,11.005,11.005,0,0,1-1.2,4.993A4.188,4.188,0,0,1,130,46.325Z" transform="translate(-124.019 -37.319)"/></g><path class="c" d="M160.551,224.6a1.613,1.613,0,0,1-1.6-1.406,4.523,4.523,0,0,0,3.162-2.091.347.347,0,0,0-.134-.493l-.468-.24a.226.226,0,0,0-.358.219h0a3.564,3.564,0,0,1-5.814,0,.226.226,0,0,0-.358-.219l-.468.24a.347.347,0,0,0-.134.493,4.524,4.524,0,0,0,3.184,2.094l1.062,1.47a2.115,2.115,0,0,0,1.715.877h0a2.115,2.115,0,0,1,1.466.591h0a1.9,1.9,0,0,1,.583,1.369,1.93,1.93,0,0,1-.859,1.606h0a1.774,1.774,0,0,1-1.146.291,5.874,5.874,0,0,1-2.9-1.12s0,0,0,0a5.556,5.556,0,0,1-.645-.5l-1.22-1.07-.944,1.047,1.31,1.113a6.852,6.852,0,0,0,4.47,1.718,3.038,3.038,0,0,0,3.082-2.966A3,3,0,0,0,160.551,224.6Z" transform="translate(-56.672 -212.589)"/><g transform="translate(98.124 7.671)"><path class="d" d="M167.8,218.734a3.868,3.868,0,0,0,6.5,0l.2-.316-.337-.173a.343.343,0,0,0-.446.119,3.178,3.178,0,0,1-5.339,0,.343.343,0,0,0-.446-.119l-.337.173Z" transform="translate(-167.602 -218.207)"/><path class="d" d="M244.756,303.95a2.31,2.31,0,0,1-2.143-1.465.984.984,0,0,0-.841-.629,3,3,0,0,0,2.984,2.785,1.613,1.613,0,0,1,1.611,1.61,1.64,1.64,0,0,1-1.648,1.613,5.483,5.483,0,0,1-3.025-.924l0,.006a.693.693,0,0,0,.294.96,6.188,6.188,0,0,0,2.727.648h.015a2.357,2.357,0,0,0,1.649-.684,2.269,2.269,0,0,0,.681-1.618A2.3,2.3,0,0,0,244.756,303.95Z" transform="translate(-239.001 -298.915)"/></g><path class="e" d="M126.321,365.342a1.266,1.266,0,1,0,1.266,1.266A1.267,1.267,0,0,0,126.321,365.342Z" transform="translate(-28.427 -352.498)"/><path class="a" d="M145.272,384.984a.575.575,0,1,0,.575.575A.576.576,0,0,0,145.272,384.984Z" transform="translate(-47.379 -371.45)"/><path class="e" d="M304.847,0a.924.924,0,0,1,.9.592l.566.277a.335.335,0,0,1,.155.455l-.31.606a.35.35,0,0,1-.465.152l-.608-.3a.948.948,0,0,1-.205.023.913.913,0,0,1-.923-.954A.921.921,0,0,1,304.847,0Z" transform="translate(-201.038 0)"/><circle class="f" cx="0.46" cy="0.46" r="0.46" transform="translate(103.142 0.299)"/><path class="e" d="M156.833,0a.924.924,0,0,0-.9.592l-.566.277a.335.335,0,0,0-.155.455l.31.606a.35.35,0,0,0,.465.152l.608-.3a.948.948,0,0,0,.205.023.913.913,0,0,0,.923-.954A.921.921,0,0,0,156.833,0Z" transform="translate(-57.488 0)"/><circle class="f" cx="0.46" cy="0.46" r="0.46" transform="translate(98.631 0.299)"/></g></svg>