<svg xmlns="http://www.w3.org/2000/svg" width="20.052" height="32" viewBox="0 0 20.052 32"><defs><style>.a{fill:#a5a5a5;}.b{fill:#a4a49e;}.c{fill:#0970a8;}.d{fill:#168ccd;}.e{fill:#5a5a5a;}.f{fill:#6f6f6f;}</style></defs><g transform="translate(-95.592 0)"><path class="a" d="M115.1,361.174a4.092,4.092,0,0,0,5.786-5.786l-4.55,1.277Z" transform="translate(-18.289 -333.177)"/><path class="a" d="M117.663,335.879a4.079,4.079,0,0,0-2.894,1.2l2.914,2.914,2.893-2.893A4.079,4.079,0,0,0,117.663,335.879Z" transform="translate(-17.978 -314.887)"/><g transform="translate(95.592 2.332)"><path class="b" d="M95.592,357.949a4.079,4.079,0,0,0,1.219,2.913L99.7,357.97l-2.914-2.914A4.079,4.079,0,0,0,95.592,357.949Z" transform="translate(-95.592 -335.197)"/><path class="a" d="M133.853,53.329a7.446,7.446,0,0,1-6.658-4.064,19.565,19.565,0,0,1-2.14-8.877,3.654,3.654,0,0,1,1.91-2.966.614.614,0,0,1,.68,1.022,2.6,2.6,0,0,0-1.363,1.944,18.333,18.333,0,0,0,2.006,8.317,6.257,6.257,0,0,0,11.13,0,18.333,18.333,0,0,0,2.005-8.317,2.6,2.6,0,0,0-1.363-1.944.614.614,0,1,1,.68-1.022,3.654,3.654,0,0,1,1.91,2.966,19.565,19.565,0,0,1-2.14,8.877A7.446,7.446,0,0,1,133.853,53.329Z" transform="translate(-123.214 -37.319)"/></g><path class="c" d="M165.39,227.925a2.868,2.868,0,0,1-2.841-2.5,8.042,8.042,0,0,0,5.622-3.717.616.616,0,0,0-.239-.876l-.832-.426a.4.4,0,0,0-.636.389h0a6.335,6.335,0,0,1-10.335,0,.4.4,0,0,0-.636-.389l-.832.426a.616.616,0,0,0-.239.876,8.042,8.042,0,0,0,5.66,3.723l1.888,2.614a3.761,3.761,0,0,0,3.049,1.559h0a3.76,3.76,0,0,1,2.606,1.05h0a3.376,3.376,0,0,1,1.036,2.433,3.431,3.431,0,0,1-1.528,2.855h0a3.154,3.154,0,0,1-2.037.516,10.443,10.443,0,0,1-5.151-1.99s0,.008,0,0a9.885,9.885,0,0,1-1.147-.9l-2.168-1.9-1.678,1.862,2.33,1.978a12.182,12.182,0,0,0,7.946,3.054,5.4,5.4,0,0,0,5.479-5.274A5.326,5.326,0,0,0,165.39,227.925Z" transform="translate(-55.066 -206.564)"/><g transform="translate(100.093 13.638)"><path class="d" d="M167.959,219.145a6.877,6.877,0,0,0,11.564,0l.357-.562-.6-.307a.611.611,0,0,0-.794.211,5.649,5.649,0,0,1-9.491,0,.611.611,0,0,0-.794-.211l-.6.307Z" transform="translate(-167.602 -218.207)"/><path class="d" d="M247.208,305.579a4.106,4.106,0,0,1-3.81-2.6,1.75,1.75,0,0,0-1.5-1.118,5.33,5.33,0,0,0,5.305,4.95,2.868,2.868,0,0,1,2.864,2.862,2.916,2.916,0,0,1-2.929,2.867,9.748,9.748,0,0,1-5.377-1.642l-.006.011a1.232,1.232,0,0,0,.523,1.707,11,11,0,0,0,4.848,1.152h.027a4.19,4.19,0,0,0,2.931-1.216,4.034,4.034,0,0,0,1.211-2.877A4.1,4.1,0,0,0,247.208,305.579Z" transform="translate(-236.977 -296.628)"/></g><path class="e" d="M127.306,365.342a2.251,2.251,0,1,0,2.251,2.251A2.253,2.253,0,0,0,127.306,365.342Z" transform="translate(-27.622 -342.509)"/><path class="a" d="M145.72,384.984a1.023,1.023,0,1,0,1.023,1.023A1.024,1.024,0,0,0,145.72,384.984Z" transform="translate(-46.036 -360.923)"/><path class="e" d="M305.54,0a1.643,1.643,0,0,1,1.6,1.052l1.006.492a.6.6,0,0,1,.276.808l-.551,1.078a.623.623,0,0,1-.827.269l-1.08-.528a1.684,1.684,0,0,1-.365.041,1.623,1.623,0,0,1-1.641-1.7A1.637,1.637,0,0,1,305.54,0Z" transform="translate(-195.341 0)"/><circle class="f" cx="0.818" cy="0.818" r="0.818" transform="translate(109.014 0.531)"/><path class="e" d="M158.123,0a1.643,1.643,0,0,0-1.6,1.052l-1.006.492a.6.6,0,0,0-.276.808l.551,1.078a.623.623,0,0,0,.827.269l1.08-.528a1.685,1.685,0,0,0,.365.041,1.623,1.623,0,0,0,1.641-1.7A1.637,1.637,0,0,0,158.123,0Z" transform="translate(-55.859 0)"/><circle class="f" cx="0.818" cy="0.818" r="0.818" transform="translate(100.994 0.531)"/></g></svg>