<svg xmlns="http://www.w3.org/2000/svg" width="160.41" height="256" viewBox="0 0 160.41 256"><defs><style>.a{opacity:0.1;}.b{fill:#a5a5a5;}.c{fill:#a4a49e;}.d{fill:#0970a8;}.e{fill:#168ccd;}.f{fill:#5a5a5a;}.g{fill:#6f6f6f;}</style></defs><g class="a" transform="translate(-95.592 0)"><path class="b" d="M115.1,401.677a32.732,32.732,0,0,0,46.289-46.289l-36.4,10.212Z" transform="translate(-9.754 -177.695)"/><path class="b" d="M137.917,335.879a32.633,32.633,0,0,0-23.148,9.588l23.311,23.311,23.144-23.144A32.631,32.631,0,0,0,137.917,335.879Z" transform="translate(-9.589 -167.94)"/><g transform="translate(95.592 18.659)"><path class="c" d="M95.592,378.2a32.63,32.63,0,0,0,9.755,23.307l23.144-23.144L105.18,355.056A32.631,32.631,0,0,0,95.592,378.2Z" transform="translate(-95.592 -196.188)"/><path class="b" d="M195.44,165.4a59.565,59.565,0,0,1-53.262-32.515,156.52,156.52,0,0,1-17.123-71.015c0-8.87,5.284-17.075,15.282-23.73a4.91,4.91,0,0,1,5.441,8.175c-4.973,3.311-10.9,8.7-10.9,15.554a146.661,146.661,0,0,0,16.044,66.539,50.059,50.059,0,0,0,89.04,0A146.661,146.661,0,0,0,256,61.872c0-6.858-5.93-12.243-10.9-15.554a4.91,4.91,0,1,1,5.441-8.175c10,6.654,15.282,14.86,15.282,23.73A156.519,156.519,0,0,1,248.7,132.888,59.569,59.569,0,0,1,195.44,165.4Z" transform="translate(-110.324 -37.319)"/></g><path class="d" d="M242.814,281.055a22.946,22.946,0,0,1-22.725-20,64.334,64.334,0,0,0,44.977-29.739,4.931,4.931,0,0,0-1.91-7.009L256.5,220.9c-2.8-1.432-5.087-.033-5.087,3.11h0a50.683,50.683,0,0,1-82.682,0c0-3.143-2.289-4.542-5.086-3.11l-6.654,3.406a4.932,4.932,0,0,0-1.909,7.011A64.335,64.335,0,0,0,200.368,261.1l15.1,20.91a30.086,30.086,0,0,0,24.388,12.469h0a30.082,30.082,0,0,1,20.852,8.4h0A27.008,27.008,0,0,1,269,322.342a27.451,27.451,0,0,1-12.224,22.84h0a25.233,25.233,0,0,1-16.3,4.132,83.544,83.544,0,0,1-41.205-15.924c-.019.034-.037.067,0,0a79.079,79.079,0,0,1-9.173-7.164l-17.346-15.22-13.422,14.9,18.638,15.826a97.456,97.456,0,0,0,63.568,24.434c23.555.3,43.633-18.632,43.83-42.188A42.6,42.6,0,0,0,242.814,281.055Z" transform="translate(-29.369 -110.168)"/><g transform="translate(131.597 109.103)"><path class="e" d="M170.457,225.707c10.182,16.034,27.041,25.23,46.255,25.23s36.073-9.2,46.255-25.23l2.857-4.5-4.8-2.456a4.884,4.884,0,0,0-6.35,1.69,45.194,45.194,0,0,1-75.928,0,4.885,4.885,0,0,0-6.349-1.69l-4.8,2.457Z" transform="translate(-167.602 -218.207)"/><path class="e" d="M286.451,331.637a32.847,32.847,0,0,1-30.48-20.838,14,14,0,0,0-11.964-8.943,42.638,42.638,0,0,0,42.443,39.6,22.942,22.942,0,0,1,22.916,22.892c.013,12.65-10.785,23.019-23.435,22.937a77.987,77.987,0,0,1-43.018-13.137c-.016.029-.032.057-.048.086a9.854,9.854,0,0,0,4.187,13.654,88.007,88.007,0,0,0,38.782,9.218h.218a33.519,33.519,0,0,0,23.45-9.725,32.269,32.269,0,0,0,9.684-23.016A32.775,32.775,0,0,0,286.451,331.637Z" transform="translate(-204.602 -260.032)"/></g><path class="f" d="M143.06,365.342a18.005,18.005,0,1,0,18.005,18.005A18.026,18.026,0,0,0,143.06,365.342Z" transform="translate(-14.732 -182.672)"/><path class="b" d="M152.881,384.984a8.184,8.184,0,1,0,8.184,8.184A8.193,8.193,0,0,0,152.881,384.984Z" transform="translate(-24.553 -192.493)"/><path class="f" d="M316.631.008a13.14,13.14,0,0,1,12.806,8.417l8.051,3.935a4.772,4.772,0,0,1,2.2,6.468l-4.411,8.623a4.984,4.984,0,0,1-6.615,2.156l-8.643-4.225a13.475,13.475,0,0,1-2.918.328,12.987,12.987,0,0,1-13.13-13.569A13.1,13.1,0,0,1,316.631.008Z" transform="translate(-104.182 0)"/><circle class="g" cx="6.547" cy="6.547" r="6.547" transform="translate(202.971 4.253)"/><path class="f" d="M178.758.008a13.14,13.14,0,0,0-12.806,8.417l-8.05,3.935a4.772,4.772,0,0,0-2.2,6.468l4.41,8.623a4.984,4.984,0,0,0,6.615,2.156l8.643-4.225a13.475,13.475,0,0,0,2.918.328,12.987,12.987,0,0,0,13.13-13.569A13.1,13.1,0,0,0,178.758.008Z" transform="translate(-29.791 0)"/><circle class="g" cx="6.547" cy="6.547" r="6.547" transform="translate(138.806 4.253)"/></g></svg>